<svg aria-hidden="true" style="position: absolute; width: 0; height: 0; overflow: hidden;" version="1.1" xmlns="http://www.w3.org/2000/svg" xmlns:xlink="http://www.w3.org/1999/xlink">
<defs>
<symbol id="icon-Enabled" viewBox="0 0 32 32">
<path fill="none" stroke="#4e75ff" style="stroke: var(--color1, #4e75ff)" stroke-linejoin="miter" stroke-linecap="butt" stroke-miterlimit="4" stroke-width="1" d="M16 6.5c5.247 0 9.5 4.253 9.5 9.5s-4.253 9.5-9.5 9.5c-5.247 0-9.5-4.253-9.5-9.5s4.253-9.5 9.5-9.5z"></path>
<path fill="#4e75ff" style="fill: var(--color1, #4e75ff)" d="M16 10c3.314 0 6 2.686 6 6s-2.686 6-6 6c-3.314 0-6-2.686-6-6s2.686-6 6-6z"></path>
</symbol>
<symbol id="icon-Group" viewBox="0 0 32 32">
<path fill="#fff" style="fill: var(--color2, #fff)" d="M2.545 16c-0-2.107 0.554-4.176 1.607-6.001s2.568-3.34 4.392-4.393c1.824-1.053 3.894-1.608 6-1.608s4.176 0.554 6 1.608c0.25 0.142 0.547 0.18 0.825 0.104s0.515-0.258 0.659-0.507c0.144-0.249 0.184-0.546 0.11-0.824s-0.254-0.517-0.503-0.662c-2.704-1.561-5.847-2.186-8.942-1.779s-5.969 1.825-8.177 4.032-3.625 5.082-4.033 8.177c-0.408 3.095 0.217 6.238 1.778 8.942s3.97 4.817 6.854 6.012 6.082 1.405 9.097 0.597c3.016-0.808 5.68-2.588 7.581-5.064s2.931-5.511 2.932-8.633c0-0.289-0.115-0.567-0.32-0.771s-0.482-0.32-0.771-0.32-0.567 0.115-0.771 0.32c-0.205 0.205-0.32 0.482-0.32 0.771 0 3.183-1.264 6.235-3.515 8.485s-5.303 3.515-8.485 3.515-6.235-1.264-8.485-3.515c-2.25-2.25-3.515-5.303-3.515-8.485z"></path>
<path fill="#fff" style="fill: var(--color2, #fff)" d="M30.591 5.863c0.101-0.101 0.182-0.222 0.237-0.354s0.083-0.275 0.083-0.418-0.028-0.285-0.083-0.418c-0.055-0.133-0.135-0.253-0.237-0.354s-0.222-0.182-0.354-0.237c-0.133-0.055-0.274-0.083-0.418-0.083s-0.286 0.028-0.418 0.083c-0.133 0.055-0.253 0.135-0.354 0.237l-14.5 14.503-5.773-5.775c-0.101-0.101-0.222-0.182-0.354-0.237s-0.275-0.083-0.418-0.083c-0.143 0-0.285 0.028-0.418 0.083s-0.253 0.135-0.354 0.237c-0.101 0.101-0.182 0.222-0.237 0.354s-0.083 0.275-0.083 0.418c0 0.143 0.028 0.285 0.083 0.418s0.135 0.253 0.237 0.354l6.545 6.545c0.101 0.102 0.222 0.182 0.354 0.237s0.275 0.083 0.418 0.083c0.143 0 0.286-0.028 0.418-0.083s0.253-0.136 0.354-0.237l15.273-15.273z"></path>
</symbol>
<symbol id="icon-Rectangle11" viewBox="0 0 32 32">
<path fill="none" stroke="#757575" style="stroke: var(--color3, #757575)" stroke-linejoin="miter" stroke-linecap="butt" stroke-miterlimit="4" stroke-width="1.6" d="M16 0.8c8.395 0 15.2 6.805 15.2 15.2s-6.805 15.2-15.2 15.2c-8.395 0-15.2-6.805-15.2-15.2s6.805-15.2 15.2-15.2z"></path>
</symbol>
<symbol id="icon-Rectangle22" viewBox="0 0 32 32">
<path stroke-linejoin="miter" stroke-linecap="butt" stroke-miterlimit="4" stroke-width="1.6" d="M16 0.8c8.395 0 15.2 6.805 15.2 15.2s-6.805 15.2-15.2 15.2c-8.395 0-15.2-6.805-15.2-15.2s6.805-15.2 15.2-15.2z"></path>
</symbol>
<symbol id="icon-Vector-1" viewBox="0 0 32 32">
<path fill="#fff" style="fill: var(--color2, #fff)" d="M0.389 2.277c-0.124-0.124-0.222-0.271-0.289-0.433s-0.102-0.336-0.102-0.511c0-0.175 0.035-0.349 0.102-0.511s0.165-0.309 0.289-0.433c0.124-0.124 0.271-0.222 0.433-0.289s0.336-0.102 0.511-0.102c0.175 0 0.349 0.035 0.511 0.102s0.309 0.165 0.433 0.289l13.723 13.725 13.723-13.725c0.124-0.124 0.271-0.222 0.433-0.289s0.336-0.102 0.511-0.102 0.349 0.035 0.511 0.102c0.162 0.067 0.309 0.165 0.433 0.289s0.222 0.271 0.289 0.433c0.067 0.162 0.102 0.336 0.102 0.511s-0.034 0.349-0.102 0.511c-0.067 0.162-0.165 0.309-0.289 0.433l-13.725 13.723 13.725 13.723c0.124 0.124 0.222 0.271 0.289 0.433s0.102 0.336 0.102 0.511c0 0.175-0.034 0.349-0.102 0.511s-0.165 0.309-0.289 0.433-0.271 0.222-0.433 0.289c-0.162 0.067-0.336 0.102-0.511 0.102s-0.349-0.035-0.511-0.102c-0.162-0.067-0.309-0.165-0.433-0.289l-13.723-13.725-13.723 13.725c-0.124 0.124-0.271 0.222-0.433 0.289s-0.336 0.102-0.511 0.102-0.349-0.035-0.511-0.102c-0.162-0.067-0.309-0.165-0.433-0.289s-0.222-0.271-0.289-0.433c-0.067-0.162-0.102-0.335-0.102-0.511s0.035-0.349 0.102-0.511c0.067-0.162 0.165-0.309 0.289-0.433l13.725-13.723-13.725-13.723z"></path>
</symbol>
</defs>
</svg>
